<svg width="168" height="36" viewBox="0 0 168 36" fill="none" xmlns="http://www.w3.org/2000/svg">
<ellipse cx="17.5" cy="18" rx="17.5" ry="18" fill="#BF72EE" fill-opacity="0.43"/>
<circle cx="53" cy="18" r="18" fill="#E3C2F8"/>
<circle cx="35" cy="18" r="18" fill="#BB6EC1" fill-opacity="0.71"/>
<path d="M90.3271 13.5918H86.2139V25H84.5352V13.5918H80.4307V12.2031H90.3271V13.5918ZM93.5967 16.6416C94.3174 15.7568 95.2549 15.3145 96.4092 15.3145C98.4189 15.3145 99.4326 16.4482 99.4502 18.7158V25H97.8242V18.707C97.8184 18.0215 97.6602 17.5146 97.3496 17.1865C97.0449 16.8584 96.5674 16.6943 95.917 16.6943C95.3896 16.6943 94.9268 16.835 94.5283 17.1162C94.1299 17.3975 93.8193 17.7666 93.5967 18.2236V25H91.9707V11.5H93.5967V16.6416ZM106.481 16.9492C106.235 16.9082 105.969 16.8877 105.682 16.8877C104.615 16.8877 103.892 17.3418 103.511 18.25V25H101.885V15.4902H103.467L103.493 16.5889C104.026 15.7393 104.782 15.3145 105.761 15.3145C106.077 15.3145 106.317 15.3555 106.481 15.4375V16.9492ZM111.755 25.1758C110.466 25.1758 109.417 24.7539 108.608 23.9102C107.8 23.0605 107.396 21.9268 107.396 20.5088V20.21C107.396 19.2666 107.574 18.4258 107.932 17.6875C108.295 16.9434 108.799 16.3633 109.443 15.9473C110.094 15.5254 110.797 15.3145 111.553 15.3145C112.789 15.3145 113.75 15.7217 114.436 16.5361C115.121 17.3506 115.464 18.5166 115.464 20.0342V20.7109H109.021C109.045 21.6484 109.317 22.4072 109.839 22.9873C110.366 23.5615 111.034 23.8486 111.843 23.8486C112.417 23.8486 112.903 23.7314 113.302 23.4971C113.7 23.2627 114.049 22.9521 114.348 22.5654L115.341 23.3389C114.544 24.5635 113.349 25.1758 111.755 25.1758ZM111.553 16.6504C110.896 16.6504 110.346 16.8906 109.9 17.3711C109.455 17.8457 109.18 18.5137 109.074 19.375H113.838V19.252C113.791 18.4258 113.568 17.7871 113.17 17.3359C112.771 16.8789 112.232 16.6504 111.553 16.6504ZM121.3 25.1758C120.011 25.1758 118.962 24.7539 118.153 23.9102C117.345 23.0605 116.94 21.9268 116.94 20.5088V20.21C116.94 19.2666 117.119 18.4258 117.477 17.6875C117.84 16.9434 118.344 16.3633 118.988 15.9473C119.639 15.5254 120.342 15.3145 121.098 15.3145C122.334 15.3145 123.295 15.7217 123.98 16.5361C124.666 17.3506 125.009 18.5166 125.009 20.0342V20.7109H118.566C118.59 21.6484 118.862 22.4072 119.384 22.9873C119.911 23.5615 120.579 23.8486 121.388 23.8486C121.962 23.8486 122.448 23.7314 122.847 23.4971C123.245 23.2627 123.594 22.9521 123.893 22.5654L124.886 23.3389C124.089 24.5635 122.894 25.1758 121.3 25.1758ZM121.098 16.6504C120.441 16.6504 119.891 16.8906 119.445 17.3711C119 17.8457 118.725 18.5137 118.619 19.375H123.383V19.252C123.336 18.4258 123.113 17.7871 122.715 17.3359C122.316 16.8789 121.777 16.6504 121.098 16.6504ZM131.618 25V12.2031H135.23C136.344 12.2031 137.328 12.4492 138.184 12.9414C139.039 13.4336 139.698 14.1338 140.161 15.042C140.63 15.9502 140.867 16.9932 140.873 18.1709V18.9883C140.873 20.1953 140.639 21.2529 140.17 22.1611C139.707 23.0693 139.042 23.7666 138.175 24.2529C137.313 24.7393 136.309 24.9883 135.16 25H131.618ZM133.306 13.5918V23.6201H135.081C136.382 23.6201 137.393 23.2158 138.113 22.4072C138.84 21.5986 139.203 20.4473 139.203 18.9531V18.2061C139.203 16.7529 138.86 15.625 138.175 14.8223C137.495 14.0137 136.528 13.6035 135.274 13.5918H133.306ZM142.745 20.1572C142.745 19.2256 142.927 18.3877 143.29 17.6436C143.659 16.8994 144.169 16.3252 144.819 15.9209C145.476 15.5166 146.223 15.3145 147.061 15.3145C148.355 15.3145 149.401 15.7627 150.198 16.6592C151.001 17.5557 151.402 18.748 151.402 20.2363V20.3506C151.402 21.2764 151.224 22.1084 150.866 22.8467C150.515 23.5791 150.008 24.1504 149.346 24.5605C148.689 24.9707 147.934 25.1758 147.078 25.1758C145.789 25.1758 144.743 24.7275 143.94 23.8311C143.144 22.9346 142.745 21.748 142.745 20.2715V20.1572ZM144.38 20.3506C144.38 21.4053 144.623 22.252 145.109 22.8906C145.602 23.5293 146.258 23.8486 147.078 23.8486C147.904 23.8486 148.561 23.5264 149.047 22.8818C149.533 22.2314 149.776 21.3232 149.776 20.1572C149.776 19.1143 149.527 18.2705 149.029 17.626C148.537 16.9756 147.881 16.6504 147.061 16.6504C146.258 16.6504 145.61 16.9697 145.118 17.6084C144.626 18.2471 144.38 19.1611 144.38 20.3506ZM155.647 13.1875V15.4902H157.423V16.7471H155.647V22.6445C155.647 23.0254 155.727 23.3125 155.885 23.5059C156.043 23.6934 156.312 23.7871 156.693 23.7871C156.881 23.7871 157.139 23.752 157.467 23.6816V25C157.039 25.1172 156.623 25.1758 156.219 25.1758C155.492 25.1758 154.944 24.9561 154.575 24.5166C154.206 24.0771 154.021 23.4531 154.021 22.6445V16.7471H152.29V15.4902H154.021V13.1875H155.647ZM164.867 22.4775C164.867 22.0381 164.7 21.6982 164.366 21.458C164.038 21.2119 163.461 21.001 162.635 20.8252C161.814 20.6494 161.161 20.4385 160.675 20.1924C160.194 19.9463 159.837 19.6533 159.603 19.3135C159.374 18.9736 159.26 18.5693 159.26 18.1006C159.26 17.3213 159.588 16.6621 160.244 16.123C160.906 15.584 161.75 15.3145 162.775 15.3145C163.854 15.3145 164.727 15.5928 165.395 16.1494C166.068 16.7061 166.405 17.418 166.405 18.2852H164.771C164.771 17.8398 164.58 17.4561 164.199 17.1338C163.824 16.8115 163.35 16.6504 162.775 16.6504C162.184 16.6504 161.721 16.7793 161.387 17.0371C161.053 17.2949 160.886 17.6318 160.886 18.0479C160.886 18.4404 161.041 18.7363 161.352 18.9355C161.662 19.1348 162.222 19.3252 163.03 19.5068C163.845 19.6885 164.504 19.9053 165.008 20.1572C165.512 20.4092 165.884 20.7139 166.124 21.0713C166.37 21.4229 166.493 21.8535 166.493 22.3633C166.493 23.2129 166.153 23.8955 165.474 24.4111C164.794 24.9209 163.912 25.1758 162.828 25.1758C162.066 25.1758 161.393 25.041 160.807 24.7715C160.221 24.502 159.761 24.127 159.427 23.6465C159.099 23.1602 158.935 22.6357 158.935 22.0732H160.561C160.59 22.6182 160.807 23.0518 161.211 23.374C161.621 23.6904 162.16 23.8486 162.828 23.8486C163.443 23.8486 163.936 23.7256 164.305 23.4795C164.68 23.2275 164.867 22.8936 164.867 22.4775Z" fill="black"/>
</svg>
